<?xml version="1.0" encoding="utf-8"?>
<!-- Generator: Adobe Illustrator 22.0.1, SVG Export Plug-In . SVG Version: 6.00 Build 0)  -->
<svg version="1.1" id="Capa_1" xmlns="http://www.w3.org/2000/svg" xmlns:xlink="http://www.w3.org/1999/xlink" x="0px" y="0px"
	 viewBox="0 0 512 512" style="enable-background:new 0 0 512 512;" xml:space="preserve">
<style type="text/css">
	.st0{fill:#FFFFFF;}
</style>
<g>
	<path class="st0" d="M472,96H40c-22.1,0-40,17.9-40,40v240c0,22.1,17.9,40,40,40h432c22.1,0,40-17.9,40-40V136
		C512,113.9,494.1,96,472,96z M496,376c0,13.2-10.8,24-24,24H40c-13.2,0-24-10.8-24-24V136c0-13.2,10.8-24,24-24h432
		c13.2,0,24,10.8,24,24V376z"/>
	<path class="st0" d="M80,216c22.1,0,40-17.9,40-40c0-3.4-0.4-6.7-1.3-10c-1.1-4.3-5.5-6.9-9.7-5.8c-4.3,1.1-6.9,5.5-5.8,9.7
		c0.5,1.9,0.8,4,0.8,6c0,13.2-10.8,24-24,24s-24-10.8-24-24s10.8-24,24-24c2,0,4.1,0.3,6,0.8c4.3,1.1,8.6-1.5,9.7-5.7
		c1.1-4.3-1.5-8.6-5.7-9.7c-3.3-0.8-6.6-1.3-10-1.3c-22.1,0-40,17.9-40,40S57.9,216,80,216z"/>
	<path class="st0" d="M144,184h24c4.4,0,8-3.6,8-8s-3.6-8-8-8h-24c-4.4,0-8,3.6-8,8S139.6,184,144,184z"/>
	<path class="st0" d="M200,184h104c4.4,0,8-3.6,8-8s-3.6-8-8-8H200c-4.4,0-8,3.6-8,8S195.6,184,200,184z"/>
	<path class="st0" d="M456,240H296c-4.4,0-8,3.6-8,8s3.6,8,8,8h160c4.4,0,8-3.6,8-8S460.4,240,456,240z"/>
	<path class="st0" d="M456,272H224c-4.4,0-8,3.6-8,8s3.6,8,8,8h232c4.4,0,8-3.6,8-8S460.4,272,456,272z"/>
	<path class="st0" d="M80,312c0,4.4,3.6,8,8,8h104c4.4,0,8-3.6,8-8s-3.6-8-8-8H88C83.6,304,80,307.6,80,312z"/>
	<path class="st0" d="M56,304c-2.1,0-4.2,0.9-5.7,2.3S48,309.9,48,312s0.8,4.2,2.3,5.7s3.6,2.3,5.7,2.3c2.1,0,4.2-0.9,5.7-2.3
		s2.3-3.5,2.3-5.7c0-2.1-0.8-4.2-2.3-5.7S58.1,304,56,304z"/>
	<path class="st0" d="M56,336c-2.1,0-4.2,0.9-5.7,2.3S48,341.9,48,344s0.8,4.2,2.3,5.7s3.6,2.3,5.7,2.3c2.1,0,4.2-0.9,5.7-2.3
		s2.3-3.6,2.3-5.7s-0.8-4.2-2.3-5.7S58.1,336,56,336z"/>
	<path class="st0" d="M248,336H88c-4.4,0-8,3.6-8,8s3.6,8,8,8h160c4.4,0,8-3.6,8-8S252.4,336,248,336z"/>
</g>
</svg>
