<?xml version="1.0" encoding="utf-8"?>
<!-- Generator: Adobe Illustrator 22.0.1, SVG Export Plug-In . SVG Version: 6.00 Build 0)  -->
<svg version="1.1" id="Capa_1" xmlns="http://www.w3.org/2000/svg" xmlns:xlink="http://www.w3.org/1999/xlink" x="0px" y="0px"
	 viewBox="0 0 375.8 375.8" style="enable-background:new 0 0 375.8 375.8;" xml:space="preserve">
<style type="text/css">
	.st0{fill:#FFFFFF;}
</style>
<g>
	<g>
		<path class="st0" d="M374.4,296.9L267,103.8H91.1l86.9,192.7c2.8,6.3,10.7,11.4,17.6,11.4H368
			C374.9,307.8,377.8,302.9,374.4,296.9z"/>
		<path class="st0" d="M77.1,94.4c-3.9,0-7.2,6.6-7.9,15.5l-5.6-0.6c-2.3-0.2-4.3,1.4-4.6,3.7c-0.2,2.3,1.4,4.3,3.7,4.6l6.5,0.7
			c0.8,8.7,4.1,15.3,7.9,15.3l21.8,1.8L81.2,94.7L77.1,94.4z"/>
		<path class="st0" d="M36.1,214.3h11.4l20.3-84.1c-1.3-2.5-2.2-5.6-2.7-9.3l-4-0.4c-1.9-0.2-3.7-1.1-4.9-2.6
			c-1.2-1.5-1.8-3.4-1.6-5.3c0.4-4,3.9-6.9,8-6.5l2.6,0.3c1.5-9.3,5.5-15.2,10.7-15.2c0.3,0,10.1,0.8,10.1,0.8l2.9,6.3l68.3-0.3
			l-5.6-18c-2.1-6.6-9.3-11.9-16.2-11.9H10c-6.9,0-11.2,5.4-9.7,12.1l31.6,136.2C33.1,215.1,34.5,214.3,36.1,214.3z"/>
		<path class="st0" d="M77.4,138.5c-2.2,0-4.2-1.2-5.9-3.2L44.7,249.9h43.7h1.4h58.5l-47.9-109.6L77.4,138.5z"/>
		<path class="st0" d="M31.3,229.6h-10c-2.3,0-4.2,1.9-4.2,4.1c0,2.3,1.9,4.2,4.2,4.2h10c0.6,6.5,2.7,11.2,5.1,11.2h4.4l7.2-30.8
			H36.4C34,218.4,31.9,223.1,31.3,229.6z"/>
	</g>
</g>
</svg>
