<?xml version="1.0" encoding="utf-8"?>
<!-- Generator: Adobe Illustrator 22.0.1, SVG Export Plug-In . SVG Version: 6.00 Build 0)  -->
<svg version="1.1" id="Capa_1" xmlns="http://www.w3.org/2000/svg" xmlns:xlink="http://www.w3.org/1999/xlink" x="0px" y="0px"
	 viewBox="0 0 325 325" style="enable-background:new 0 0 325 325;" xml:space="preserve">
<style type="text/css">
	.st0{fill:#FFFFFF;}
</style>
<path class="st0" d="M323.2,160.1L298,134.8c-1.1-1.1-2.7-1.8-4.2-1.8c-1.6,0-3.1,0.6-4.2,1.8l-25.3,25.3c-2.3,2.3-2.3,6.1,0,8.5
	l4.6,4.6c-11.6,5.3-23.9,7.7-38.7,7.7c-19.9,0-33-4.5-42.9-9.7l4.9-4.9c2.3-2.3,2.3-6.1,0-8.5l-25.3-25.3c-1.1-1.1-2.7-1.8-4.2-1.8
	c-1.6,0-3.1,0.6-4.2,1.8l-8.4,8.4L82.8,73.8c1.6-2.9,2.6-6.3,2.6-9.9c0-11.3-9.2-20.4-20.4-20.4c-11.3,0-20.4,9.2-20.4,20.4
	c0,11.3,9.2,20.4,20.4,20.4c3.3,0,6.4-0.8,9.2-2.2l53.8,53.8c-8.9-2.8-19.7-4.7-33.1-4.7c-19.5,0-35.3,3.8-50.6,12.3l-8.6-8.6
	c-1.1-1.1-2.7-1.8-4.2-1.8c-1.6,0-3.1,0.6-4.2,1.8L1.8,160.1c-2.3,2.3-2.3,6.1,0,8.5L27,193.8c1.1,1.1,2.7,1.8,4.2,1.8
	c1.6,0,3.1-0.6,4.2-1.8l25.3-25.3c2.3-2.3,2.3-6.1,0-8.5l-7.8-7.8c9.4-4.8,22.4-9.1,41.8-9.1c20,0,33.1,4.5,43.1,9.8l-4.8,4.8
	c-2.3,2.3-2.3,6.1,0,8.5l25.3,25.3c1.1,1.1,2.7,1.8,4.2,1.8c1.6,0,3.1-0.6,4.2-1.8l8.4-8.4l68.4,68.4c-1.5,2.9-2.4,6.1-2.4,9.5
	c0,11.3,9.2,20.4,20.4,20.4c11.3,0,20.4-9.2,20.4-20.4s-9.2-20.4-20.4-20.4c-3.4,0-6.7,0.9-9.5,2.4l-54.8-54.8
	c8.8,2.7,19.6,4.6,32.9,4.6c18.1,0,33.4-3.4,47.7-10.7l11.7,11.7c1.1,1.1,2.7,1.8,4.2,1.8c1.6,0,3.1-0.6,4.2-1.8l25.3-25.3
	C325.6,166.2,325.6,162.4,323.2,160.1z M31.3,181.1l-16.8-16.8l16.8-16.8L48,164.3L31.3,181.1z M56.5,63.9c0-4.6,3.8-8.4,8.4-8.4
	c4.6,0,8.4,3.8,8.4,8.4s-3.8,8.4-8.4,8.4C60.3,72.3,56.5,68.5,56.5,63.9z M162.5,178.8L145.7,162l16.8-16.8l16.8,16.8L162.5,178.8z
	 M270,261.1c0,4.6-3.8,8.4-8.4,8.4s-8.4-3.8-8.4-8.4c0-1.9,0.6-3.6,1.7-5c0.3-0.2,0.7-0.5,1-0.8c0.3-0.3,0.6-0.6,0.8-1
	c1.4-1,3.1-1.7,5-1.7C266.2,252.7,270,256.5,270,261.1z M293.7,181.1L277,164.3l16.8-16.8l16.8,16.8L293.7,181.1z"/>
</svg>
